<svg xmlns="http://www.w3.org/2000/svg" width="29.012" height="29" viewBox="0 0 29.012 29">
  <path id="Forma_1" data-name="Forma 1" d="M1568.993,2549a8.013,8.013,0,0,1-8.006-8V2528a8.014,8.014,0,0,1,8.006-8h13a8.013,8.013,0,0,1,8.006,8V2541a8.013,8.013,0,0,1-8.006,8Zm-5.432-21V2541a5.437,5.437,0,0,0,5.432,5.43h13a5.437,5.437,0,0,0,5.433-5.43h0V2528a5.438,5.438,0,0,0-5.432-5.43h-13A5.438,5.438,0,0,0,1563.561,2528Zm4.457,6.5a7.476,7.476,0,1,1,7.475,7.472A7.482,7.482,0,0,1,1568.018,2534.5Zm2.574,0a4.9,4.9,0,1,0,4.9-4.9A4.906,4.906,0,0,0,1570.592,2534.5Zm11.357-6.433a1.888,1.888,0,1,1,1.334.553A1.905,1.905,0,0,1,1581.949,2528.068Z" transform="translate(-1560.987 -2520)" fill="#838383"/>
</svg>
