<svg xmlns="http://www.w3.org/2000/svg" width="28.982" height="29.002" viewBox="0 0 28.982 29.002">
  <path id="Forma_1" data-name="Forma 1" d="M1447.5,2519a14.5,14.5,0,1,0,14.491,14.5A14.5,14.5,0,0,0,1447.5,2519Zm1.333,18.892a2.833,2.833,0,0,1-2.425-1.264s-.576,2.336-.7,2.787a8.554,8.554,0,0,1-.969,2.125c-.524.686-1.129.177-1.2-.449a9.037,9.037,0,0,1,.174-2.269c.191-.823,1.276-5.525,1.276-5.525a3.963,3.963,0,0,1-.317-1.6c0-1.5.852-2.625,1.914-2.625a1.348,1.348,0,0,1,1.339,1.523,22.191,22.191,0,0,1-.876,3.6,1.56,1.56,0,0,0,1.566,1.953c1.88,0,3.147-2.468,3.147-5.391,0-2.223-1.465-3.885-4.13-3.885a4.75,4.75,0,0,0-4.886,4.855,2.956,2.956,0,0,0,.655,1.988.5.5,0,0,1,.142.566c-.047.188-.157.635-.2.814a.34.34,0,0,1-.5.253c-1.387-.579-2.033-2.13-2.033-3.873,0-2.881,2.378-6.334,7.093-6.334a5.986,5.986,0,0,1,6.283,5.808C1454.186,2534.916,1452.021,2537.887,1448.831,2537.887Z" transform="translate(-1433.006 -2518.995)" fill="#838383"/>
</svg>
