<svg xmlns="http://www.w3.org/2000/svg" width="35.994" height="27.027" viewBox="0 0 35.994 27.027">
  <path id="Forma_1" data-name="Forma 1" d="M1475.994,2533.5a13.665,13.665,0,0,1,13.811-13.513,13.926,13.926,0,0,1,9.665,3.861l-3.119,3.317a9.28,9.28,0,0,0-6.546-2.674,9.011,9.011,0,1,0,8.786,11.712h-7.865V2532h12.891v4.2a14.058,14.058,0,0,1-13.811,10.811A13.664,13.664,0,0,1,1475.994,2533.5Zm31.1,3.282v-2.58h-2.637v-2.212h2.637v-2.579h2.26v2.579h2.637v2.212h-2.637v2.58Z" transform="translate(-1475.994 -2519.987)" fill="#838383"/>
</svg>
